<svg xmlns="http://www.w3.org/2000/svg" width="12" height="12" viewBox="0 0 12 12">
  <path fill="#006aff" fill-rule="evenodd" d="M10 3.317L5.659 7.66 4.244 6.244 8.49 2H8L6 0h6v6l-2-2v-.683zM3 0l2 2H3.282c-.446 0-.607.046-.77.134a.909.909 0 0 0-.378.378c-.088.163-.134.324-.134.77v5.436c0 .446.046.607.134.77.087.163.215.291.378.378.163.088.324.134.77.134h5.436c.446 0 .607-.046.77-.134a.909.909 0 0 0 .378-.378c.088-.163.134-.324.134-.77V7l2 2v.436c0 .892-.093 1.215-.267 1.54-.174.327-.43.583-.756.757-.326.174-.65.267-1.54.267H2.563c-.892 0-1.215-.093-1.54-.267a1.817 1.817 0 0 1-.757-.756C.093 10.65 0 10.327 0 9.437V2.563c0-.892.093-1.215.267-1.54.174-.327.43-.583.756-.757C1.35.093 1.673 0 2.563 0H3z"/>
</svg>
